<svg xmlns="http://www.w3.org/2000/svg" xmlns:xlink="http://www.w3.org/1999/xlink" viewBox="0 0 521.2 440.26"><defs><style>.cls-1{fill:url(#linear-gradient)}.cls-2{fill:url(#linear-gradient-2)}.cls-3{fill:url(#linear-gradient-3)}.cls-4{fill:url(#linear-gradient-4)}.cls-5{fill:url(#linear-gradient-5)}.cls-6{fill:url(#linear-gradient-6)}.cls-7{fill:url(#linear-gradient-7)}.cls-8{fill:url(#linear-gradient-8)}.cls-9{fill:url(#linear-gradient-9)}.cls-10{fill:url(#linear-gradient-10)}.cls-11{fill:url(#linear-gradient-11)}.cls-12{fill:url(#linear-gradient-12)}.cls-13{fill:url(#linear-gradient-13)}.cls-14{fill:url(#linear-gradient-14)}.cls-15{fill:url(#linear-gradient-15)}.cls-16{fill:url(#linear-gradient-16)}.cls-17{fill:url(#linear-gradient-17)}.cls-18{fill:url(#linear-gradient-18)}.cls-19{fill:url(#linear-gradient-19)}.cls-20{fill:url(#linear-gradient-20)}.cls-21{fill:url(#linear-gradient-21)}.cls-22{fill:url(#linear-gradient-22)}.cls-23{fill:url(#linear-gradient-23)}.cls-24{fill:url(#linear-gradient-24)}.cls-25{fill:url(#linear-gradient-25)}.cls-26{fill:url(#linear-gradient-26)}.cls-27{fill:url(#linear-gradient-27)}.cls-28{fill:url(#linear-gradient-28)}.cls-29{fill:url(#linear-gradient-29)}.cls-30{fill:url(#linear-gradient-30)}.cls-31{fill:#58595b}.cls-32{fill:url(#linear-gradient-31)}.cls-33{fill:url(#linear-gradient-32)}.cls-34{fill:url(#linear-gradient-33)}.cls-35{fill:url(#linear-gradient-34)}.cls-36{fill:url(#linear-gradient-35)}.cls-37{fill:url(#linear-gradient-36)}.cls-38{fill:url(#linear-gradient-37)}.cls-39{fill:url(#linear-gradient-38)}.cls-40{fill:url(#linear-gradient-39)}.cls-41{fill:url(#linear-gradient-40)}.cls-42{fill:url(#linear-gradient-41)}.cls-43{fill:url(#linear-gradient-42)}.cls-44{fill:url(#linear-gradient-43)}.cls-45{fill:url(#linear-gradient-44)}.cls-46{fill:url(#linear-gradient-45)}.cls-47{fill:url(#linear-gradient-46)}.cls-48{fill:url(#linear-gradient-47)}.cls-49{fill:url(#linear-gradient-48)}.cls-50{fill:url(#linear-gradient-49)}.cls-51{fill:url(#linear-gradient-50)}.cls-52{fill:url(#linear-gradient-51)}.cls-53{fill:url(#linear-gradient-52)}.cls-54{fill:url(#linear-gradient-53)}.cls-55{fill:url(#linear-gradient-54)}.cls-56{fill:url(#linear-gradient-55)}.cls-57{fill:url(#linear-gradient-56)}.cls-58{fill:url(#linear-gradient-57)}.cls-59{fill:url(#linear-gradient-58)}.cls-60{fill:url(#linear-gradient-59)}.cls-61{fill:url(#linear-gradient-60)}.cls-62{fill:url(#linear-gradient-61)}.cls-63{fill:url(#linear-gradient-62)}.cls-64{fill:url(#linear-gradient-63)}.cls-65{fill:url(#linear-gradient-64)}.cls-66{fill:url(#linear-gradient-65)}.cls-67{fill:url(#linear-gradient-66)}.cls-68{fill:url(#linear-gradient-67)}.cls-69{fill:url(#linear-gradient-68)}.cls-70{fill:url(#linear-gradient-69)}.cls-71{fill:url(#linear-gradient-70)}.cls-72{fill:url(#linear-gradient-71)}.cls-73{fill:url(#linear-gradient-72)}.cls-74{fill:#fff}.cls-75{fill:url(#linear-gradient-73)}.cls-76{fill:url(#linear-gradient-74)}.cls-77{fill:url(#linear-gradient-75)}.cls-78{fill:url(#linear-gradient-76)}.cls-79{fill:url(#linear-gradient-77)}.cls-80{fill:url(#linear-gradient-78)}.cls-81{fill:url(#linear-gradient-79)}.cls-82{fill:url(#linear-gradient-80)}.cls-83{fill:url(#linear-gradient-81)}.cls-84{fill:url(#linear-gradient-82)}.cls-85{fill:url(#linear-gradient-83)}.cls-86{fill:url(#linear-gradient-84)}</style><linearGradient id="linear-gradient" x1="180.43" y1="204" x2="197.8" y2="204" gradientUnits="userSpaceOnUse"><stop offset="0" stop-color="#2e9bd6"/><stop offset="1" stop-color="#21688f"/></linearGradient><linearGradient id="linear-gradient-2" x1="71.04" y1="216.07" x2="127.26" y2="216.07" gradientUnits="userSpaceOnUse"><stop offset="0" stop-color="#79c36e"/><stop offset="1" stop-color="#518045"/></linearGradient><linearGradient id="linear-gradient-3" x1="71.04" y1="215.98" x2="128.63" y2="215.98" gradientUnits="userSpaceOnUse"><stop offset="0" stop-color="#63be6e"/><stop offset="1" stop-color="#417845"/></linearGradient><linearGradient id="linear-gradient-4" x1="150.14" y1="208.47" x2="190.63" y2="208.47" gradientUnits="userSpaceOnUse"><stop offset="0" stop-color="#74c26e"/><stop offset="1" stop-color="#4e7f44"/></linearGradient><linearGradient id="linear-gradient-5" x1="48.43" y1="346.48" x2="86.1" y2="346.48" gradientUnits="userSpaceOnUse"><stop offset="0" stop-color="#9c3f98"/><stop offset="1" stop-color="#6c2168"/></linearGradient><linearGradient id="linear-gradient-6" x1="109.96" y1="274.53" x2="143.26" y2="274.53" gradientUnits="userSpaceOnUse"><stop offset="0" stop-color="#803d97"/><stop offset="1" stop-color="#562365"/></linearGradient><linearGradient id="linear-gradient-7" x1="143.26" y1="273.09" x2="168.64" y2="273.09" gradientUnits="userSpaceOnUse"><stop offset="0" stop-color="#424ca0"/><stop offset="1" stop-color="#2a2d6a"/></linearGradient><linearGradient id="linear-gradient-8" x1="168.64" y1="265.32" x2="190.71" y2="265.32" gradientUnits="userSpaceOnUse"><stop offset="0" stop-color="#335caa"/><stop offset="1" stop-color="#1e3c71"/></linearGradient><linearGradient id="linear-gradient-9" x1="168.64" y1="292.04" x2="209.35" y2="292.04" gradientUnits="userSpaceOnUse"><stop offset="0" stop-color="#335caa"/><stop offset=".25" stop-color="#3159a5"/><stop offset=".53" stop-color="#2c5298"/><stop offset=".82" stop-color="#244682"/><stop offset="1" stop-color="#1e3c71"/></linearGradient><linearGradient id="linear-gradient-10" x1="190.71" y1="275.75" x2="209.35" y2="275.75" xlink:href="#linear-gradient-9"/><linearGradient id="linear-gradient-11" x1="219.16" y1="229.58" x2="241.25" y2="229.58" gradientUnits="userSpaceOnUse"><stop offset="0" stop-color="#3096d3"/><stop offset="1" stop-color="#21658d"/></linearGradient><linearGradient id="linear-gradient-12" x1="190.62" y1="229.98" x2="219.16" y2="229.98" gradientUnits="userSpaceOnUse"><stop offset="0" stop-color="#3166b1"/><stop offset="1" stop-color="#1a4577"/></linearGradient><linearGradient id="linear-gradient-13" x1="245.87" y1="168.38" x2="264.18" y2="168.38" gradientUnits="userSpaceOnUse"><stop offset="0" stop-color="#2fa5dd"/><stop offset="1" stop-color="#236e93"/></linearGradient><linearGradient id="linear-gradient-14" x1="219.16" y1="183.92" x2="246.43" y2="183.92" gradientUnits="userSpaceOnUse"><stop offset="0" stop-color="#2fa5dd"/><stop offset=".2" stop-color="#2e9fd5"/><stop offset=".52" stop-color="#2b90c0"/><stop offset=".89" stop-color="#27769e"/><stop offset="1" stop-color="#256e93"/></linearGradient><linearGradient id="linear-gradient-15" x1="194.07" y1="192.57" x2="219.16" y2="192.57" xlink:href="#linear-gradient-13"/><linearGradient id="linear-gradient-16" x1="146.59" y1="151.66" x2="161.32" y2="151.66" gradientUnits="userSpaceOnUse"><stop offset="0" stop-color="#4ab990"/><stop offset="1" stop-color="#31745b"/></linearGradient><linearGradient id="linear-gradient-17" x1="103.93" y1="71.97" x2="116.18" y2="71.97" gradientUnits="userSpaceOnUse"><stop offset="0" stop-color="#4ab887"/><stop offset="1" stop-color="#307356"/></linearGradient><linearGradient id="linear-gradient-18" x1="111.33" y1="156.28" x2="150.14" y2="156.28" xlink:href="#linear-gradient-2"/><linearGradient id="linear-gradient-19" x1="135.93" y1="216.51" x2="157.8" y2="216.51" xlink:href="#linear-gradient-4"/><linearGradient id="linear-gradient-20" x1="88.73" y1="238.19" x2="128.62" y2="238.19" gradientUnits="userSpaceOnUse"><stop offset="0" stop-color="#72c16e"/><stop offset="1" stop-color="#4c7e44"/></linearGradient><linearGradient id="linear-gradient-21" x1="51.75" y1="192.37" x2="128.62" y2="192.37" xlink:href="#linear-gradient-3"/><linearGradient id="linear-gradient-22" x1="51.73" y1="136.5" x2="100.52" y2="136.5" xlink:href="#linear-gradient-4"/><linearGradient id="linear-gradient-23" x1="13.34" y1="81.36" x2="100.52" y2="81.36" xlink:href="#linear-gradient-2"/><linearGradient id="linear-gradient-24" x1="31.34" y1="110.73" x2="100.52" y2="110.73" gradientUnits="userSpaceOnUse"><stop offset="0" stop-color="#8ec96e"/><stop offset="1" stop-color="#5e8844"/></linearGradient><linearGradient id="linear-gradient-25" x1="57.47" y1="305.51" x2="86.1" y2="305.51" xlink:href="#linear-gradient-5"/><linearGradient id="linear-gradient-26" x1="88.73" y1="266.86" x2="143.26" y2="266.86" xlink:href="#linear-gradient-6"/><linearGradient id="linear-gradient-27" x1="143.26" y1="257.23" x2="190.63" y2="257.23" xlink:href="#linear-gradient-8"/><linearGradient id="linear-gradient-28" x1="185.75" y1="234.09" x2="192.38" y2="234.09" xlink:href="#linear-gradient-12"/><linearGradient id="linear-gradient-29" x1="103.66" y1="103.86" x2="145.44" y2="103.86" gradientTransform="rotate(.19 950.673 462.822)" xlink:href="#linear-gradient-16"/><linearGradient id="linear-gradient-30" x1="137.69" y1="135.25" x2="145.83" y2="135.25" gradientTransform="rotate(.19 950.673 462.822)" xlink:href="#linear-gradient-17"/><linearGradient id="linear-gradient-31" x1="218.33" y1="210.58" x2="268.57" y2="210.58" gradientTransform="rotate(.19 950.673 462.822)" xlink:href="#linear-gradient-14"/><linearGradient id="linear-gradient-32" x1="187.35" y1="219.44" x2="218.33" y2="219.44" gradientTransform="rotate(.19 950.673 462.822)" xlink:href="#linear-gradient-12"/><linearGradient id="linear-gradient-33" x1="92.48" y1="317.2" x2="111.7" y2="317.2" gradientTransform="rotate(.19 950.673 462.822)" xlink:href="#linear-gradient-7"/><linearGradient id="linear-gradient-34" x1="23.87" y1="337.62" x2="85.62" y2="337.62" gradientTransform="rotate(.19 950.673 462.822)" xlink:href="#linear-gradient-5"/><linearGradient id="linear-gradient-35" x1="47.92" y1="365.88" x2="94.24" y2="365.88" gradientTransform="rotate(.19 950.673 462.822)" xlink:href="#linear-gradient-5"/><linearGradient id="linear-gradient-36" x1="85.59" y1="330.95" x2="94.24" y2="330.95" gradientTransform="rotate(.19 950.673 462.822)" xlink:href="#linear-gradient-5"/><linearGradient id="linear-gradient-37" x1="162.46" y1="307.2" x2="169.97" y2="307.2" gradientTransform="rotate(.19 950.673 462.822)" gradientUnits="userSpaceOnUse"><stop offset="0" stop-color="#335caa"/><stop offset=".31" stop-color="#325aa7"/><stop offset=".55" stop-color="#2e559d"/><stop offset=".77" stop-color="#284b8c"/><stop offset=".97" stop-color="#203e75"/><stop offset="1" stop-color="#1e3c71"/></linearGradient><linearGradient id="linear-gradient-38" x1="122.19" y1="310.43" x2="168.05" y2="310.43" gradientTransform="rotate(.19 950.673 462.822)" gradientUnits="userSpaceOnUse"><stop offset="0" stop-color="#335caa"/><stop offset=".25" stop-color="#3159a5"/><stop offset=".53" stop-color="#2c5298"/><stop offset=".83" stop-color="#244581"/><stop offset="1" stop-color="#1e3c71"/></linearGradient><linearGradient id="linear-gradient-39" x1="109.38" y1="311.88" x2="122.19" y2="311.88" xlink:href="#linear-gradient-38"/><linearGradient id="linear-gradient-40" x1="85.59" y1="300.85" x2="109.38" y2="300.85" gradientTransform="rotate(.19 950.673 462.822)" xlink:href="#linear-gradient-7"/><linearGradient id="linear-gradient-41" x1="88.09" y1="278.4" x2="109.38" y2="278.4" gradientTransform="rotate(.19 950.673 462.822)" xlink:href="#linear-gradient-6"/><linearGradient id="linear-gradient-42" x1="78.97" y1="292.16" x2="95.19" y2="292.16" gradientTransform="rotate(.19 950.673 462.822)" xlink:href="#linear-gradient-5"/><linearGradient id="linear-gradient-43" x1="138.72" y1="295.33" x2="138.72" y2="280.59" gradientTransform="rotate(.19 950.673 462.822)" gradientUnits="userSpaceOnUse"><stop offset="0" stop-color="#8e3f98"/><stop offset=".38" stop-color="#803688"/><stop offset="1" stop-color="#622367"/></linearGradient><linearGradient id="linear-gradient-44" x1="160.41" y1="193.07" x2="185.26" y2="193.07" gradientTransform="rotate(.19 950.673 462.822)" xlink:href="#linear-gradient-16"/><linearGradient id="linear-gradient-45" x1="189.93" y1="251.53" x2="240.55" y2="251.53" gradientTransform="rotate(.19 950.673 462.822)" gradientUnits="userSpaceOnUse"><stop offset="0" stop-color="#3282c5"/><stop offset="1" stop-color="#1b5a86"/></linearGradient><linearGradient id="linear-gradient-46" x1="88.09" y1="240.56" x2="142.62" y2="240.56" gradientTransform="rotate(.19 950.673 462.822)" xlink:href="#linear-gradient-20"/><linearGradient id="linear-gradient-47" x1="160.41" y1="221.29" x2="189.93" y2="221.29" gradientTransform="rotate(.19 950.673 462.822)" xlink:href="#linear-gradient-17"/><linearGradient id="linear-gradient-48" x1="85.58" y1="292.15" x2="109.36" y2="292.15" gradientTransform="rotate(.19 950.673 462.822)" xlink:href="#linear-gradient-5"/><linearGradient id="linear-gradient-49" x1="189.93" y1="277.58" x2="240.55" y2="277.58" gradientTransform="rotate(.19 950.673 462.822)" xlink:href="#linear-gradient-9"/><linearGradient id="linear-gradient-50" x1="189.93" y1="232.44" x2="240.55" y2="232.44" xlink:href="#linear-gradient-45"/><linearGradient id="linear-gradient-51" x1="218.33" y1="226.3" x2="268.57" y2="226.3" gradientTransform="rotate(.19 950.673 462.822)" xlink:href="#linear-gradient-11"/><linearGradient id="linear-gradient-52" x1="187.35" y1="232.44" x2="218.33" y2="232.44" gradientTransform="rotate(.19 950.673 462.822)" xlink:href="#linear-gradient-12"/><linearGradient id="linear-gradient-53" x1="168.05" y1="278.06" x2="208.83" y2="278.06" gradientTransform="rotate(.19 950.673 462.822)" xlink:href="#linear-gradient-9"/><linearGradient id="linear-gradient-54" x1="163.3" y1="307.2" x2="208.83" y2="307.2" gradientTransform="rotate(.19 950.673 462.822)" xlink:href="#linear-gradient-8"/><linearGradient id="linear-gradient-55" x1="136.21" y1="344.75" x2="170.39" y2="285.55" xlink:href="#linear-gradient-37"/><linearGradient id="linear-gradient-56" x1="126.08" y1="277.46" x2="150.74" y2="320.17" xlink:href="#linear-gradient-38"/><linearGradient id="linear-gradient-57" x1="142.61" y1="267.69" x2="189.93" y2="267.69" gradientTransform="rotate(.19 950.673 462.822)" xlink:href="#linear-gradient-8"/><linearGradient id="linear-gradient-58" x1="109.38" y1="277.26" x2="168.05" y2="277.26" gradientTransform="rotate(.19 950.673 462.822)" xlink:href="#linear-gradient-7"/><linearGradient id="linear-gradient-59" x1="94.24" y1="317.2" x2="122.19" y2="317.2" gradientTransform="rotate(.19 950.673 462.822)" gradientUnits="userSpaceOnUse"><stop offset="0" stop-color="#3b66b0"/><stop offset="1" stop-color="#214478"/></linearGradient><linearGradient id="linear-gradient-60" x1="145.44" y1="154.3" x2="185.06" y2="154.3" gradientTransform="rotate(.19 950.673 462.822)" xlink:href="#linear-gradient-16"/><linearGradient id="linear-gradient-61" x1="103.66" y1="86.42" x2="145.44" y2="86.42" gradientTransform="rotate(.19 950.673 462.822)" xlink:href="#linear-gradient-16"/><linearGradient id="linear-gradient-62" x1="100.52" y1="69.34" x2="113.62" y2="69.34" gradientTransform="rotate(.19 950.673 462.822)" xlink:href="#linear-gradient-17"/><linearGradient id="linear-gradient-63" x1="103.66" y1="123.58" x2="145.44" y2="123.58" gradientTransform="rotate(.19 950.673 462.822)" xlink:href="#linear-gradient-17"/><linearGradient id="linear-gradient-64" x1="185.06" y1="198.84" x2="218.33" y2="198.84" gradientTransform="rotate(.19 950.673 462.822)" xlink:href="#linear-gradient"/><linearGradient id="linear-gradient-65" x1="193.12" y1="184.93" x2="244.86" y2="184.93" gradientTransform="rotate(.19 950.673 462.822)" xlink:href="#linear-gradient-13"/><linearGradient id="linear-gradient-66" x1="218.33" y1="186.29" x2="272.96" y2="186.29" gradientTransform="rotate(.19 950.673 462.822)" xlink:href="#linear-gradient-14"/><linearGradient id="linear-gradient-67" x1="244.86" y1="177.15" x2="276.79" y2="177.15" gradientTransform="rotate(.19 950.673 462.822)" xlink:href="#linear-gradient-13"/><linearGradient id="linear-gradient-68" x1="48.15" y1="349.39" x2="94.24" y2="349.39" gradientTransform="rotate(.19 950.673 462.822)" xlink:href="#linear-gradient-5"/><linearGradient id="linear-gradient-69" x1="38.95" y1="390.81" x2="94.24" y2="390.81" gradientTransform="rotate(.19 950.673 462.822)" xlink:href="#linear-gradient-5"/><linearGradient id="linear-gradient-70" x1="70.34" y1="309.66" x2="92.08" y2="272" gradientTransform="rotate(.19 950.673 462.822)" xlink:href="#linear-gradient-5"/><linearGradient id="linear-gradient-71" x1="46.31" y1="372.78" x2="46.31" y2="301.92" gradientTransform="rotate(.19 950.673 462.822)" xlink:href="#linear-gradient-5"/><linearGradient id="linear-gradient-72" x1="1.13" y1="379" x2="85.59" y2="379" gradientTransform="rotate(.19 950.673 462.822)" xlink:href="#linear-gradient-5"/><linearGradient id="linear-gradient-73" x1="-1.51" y1="51.86" x2="99.32" y2="51.86" gradientTransform="rotate(.19 950.673 462.822)" xlink:href="#linear-gradient-2"/><linearGradient id="linear-gradient-74" x1="12.03" y1="96.05" x2="99.32" y2="96.05" gradientTransform="rotate(.19 950.673 462.822)" xlink:href="#linear-gradient-24"/><linearGradient id="linear-gradient-75" x1="30.22" y1="139.39" x2="99.32" y2="139.39" gradientTransform="rotate(.19 950.673 462.822)" gradientUnits="userSpaceOnUse"><stop offset="0" stop-color="#69c078"/><stop offset="1" stop-color="#447b4b"/></linearGradient><linearGradient id="linear-gradient-76" x1="50.81" y1="156.43" x2="127.79" y2="156.43" gradientTransform="rotate(.19 950.673 462.822)" xlink:href="#linear-gradient-4"/><linearGradient id="linear-gradient-77" x1="70.23" y1="240.98" x2="127.79" y2="240.98" gradientTransform="rotate(.19 950.673 462.822)" xlink:href="#linear-gradient-2"/><linearGradient id="linear-gradient-78" x1="137.69" y1="154.3" x2="160.41" y2="154.3" gradientTransform="rotate(.19 950.673 462.822)" xlink:href="#linear-gradient-17"/><linearGradient id="linear-gradient-79" x1="142.61" y1="219.17" x2="189.93" y2="219.17" gradientTransform="rotate(.19 950.673 462.822)" xlink:href="#linear-gradient-4"/><linearGradient id="linear-gradient-80" x1="110.28" y1="207.24" x2="149.17" y2="207.24" gradientTransform="rotate(.19 950.673 462.822)" xlink:href="#linear-gradient-2"/><linearGradient id="linear-gradient-81" x1="99.32" y1="135.76" x2="149.17" y2="135.76" xlink:href="#linear-gradient-75"/><linearGradient id="linear-gradient-82" x1="50.81" y1="198.49" x2="127.79" y2="198.49" gradientTransform="rotate(.19 950.673 462.822)" xlink:href="#linear-gradient-3"/><linearGradient id="linear-gradient-83" x1="88.09" y1="277.26" x2="142.62" y2="277.26" gradientTransform="rotate(.19 950.673 462.822)" xlink:href="#linear-gradient-6"/><linearGradient id="linear-gradient-84" x1="85.59" y1="317.2" x2="109.38" y2="317.2" gradientTransform="rotate(.19 950.673 462.822)" xlink:href="#linear-gradient-7"/></defs><title>Asset 1</title><g id="Layer_2" data-name="Layer 2"><g id="Layer_1-2" data-name="Layer 1"><path class="cls-1" d="M186 188.85l-5.53 11.29s7.42 19.39 7.71 19 9.66-19 9.66-19z"/><path class="cls-2" d="M71.03 215.87l18.9-9.63 37.33 3-29 16.66-27.23-10.03z"/><path class="cls-3" d="M71 215.87c.45-.24 26.7-7.86 26.7-7.86s31 1.5 30.88 1.53-31.88 14.72-31.75 14.4S71 215.87 71 215.87z"/><path class="cls-4" d="M150.14 168.27c0 .28 14.5 48.63 14.72 48.78s25.77 31.63 25.77 31.63l-14.19-51.34z"/><path class="cls-5" d="M86.1 312.06l-11.26 37.09-26.41 31.75 16.25-41.91 21.42-26.93z"/><path class="cls-6" d="M110 284.32c.19-.3 6.22-10.25 6.22-10.25l27.08-9.32-15.41 14.35z"/><path class="cls-7" d="M143.26 264.75l6.54 11.07 18.84 5.79-9.71-17.04-15.67.18z"/><path class="cls-8" d="M190.71 249.03l-8.78 21.29-13.29 11.29 2.29-18.79 19.78-13.79z"/><path class="cls-9" d="M168.64 281.61l24.66 3.33 16.05 17.53-35.42-4.9-5.29-15.96z"/><path class="cls-10" d="M190.71 249.03l2.97 37.04 15.67 16.4-6.3-40.15-12.34-13.29z"/><path class="cls-11" d="M219.16 211.27c0 .55 6.52 25.42 6.52 25.42l15.57 11.2-7.82-31.95z"/><path class="cls-12" d="M219.16 211.27c0 .55-8.11 22.55-8.11 22.55s-21 15.46-20.42 14.86 7.8-22.61 7.92-23 20.61-14.41 20.61-14.41z"/><path class="cls-13" d="M245.87 156.56l6.93 17.26 11.38 6.37-.63-11-17.68-12.63z"/><path class="cls-14" d="M245.87 156.56l-22.19 21.63-4.52 33.08 27.27-34.45-.56-20.26z"/><path class="cls-15" d="M194.07 173.86s18.36 17.21 19 17.21 6.11 20.2 6.11 20.2l-22.73-22z"/><path class="cls-16" d="M146.59 112.86l1.09 33.71s13.38 44.27 13.63 43.89-3.88-51.14-3.88-51.14z"/><path class="cls-17" d="M115 54.55c-.16.39-11 17.39-11 17.39l1 17.44 11.29-23.44z"/><path class="cls-18" d="M111.33 144.28l16.97 3.66 21.84 20.33-29.71-10.2-9.1-13.79z"/><path class="cls-19" d="M150.14 168.27l-14.21 39.55s7.29 57.24 7.33 56.93 14.54-54.18 14.54-54.18z"/><path class="cls-20" d="M128.62 209.54l-9.57 31.78s-30.51 25.93-30.32 25.53 6.7-37.28 6.7-37.28z"/><path class="cls-21" d="M51.75 175.21c.68-.14 48.3 8 48.3 8l28.57 26.35-55.69-8.47z"/><path class="cls-22" d="M100.52 97.77l-38 36.67s-11.35 41.29-10.8 40.77 43.18-46.77 43.18-46.77z"/><path class="cls-23" d="M13.34 65c.21-.39 44.59 7.48 44.59 7.48l42.59 25.33-53-8.58z"/><path class="cls-24" d="M31.34 121c.71-.55 29.09-17.42 29.46-17.42s39.72-5.8 39.72-5.8l-40 25.92z"/><path class="cls-25" d="M57.47 298.96l19.88 4.5 8.75 8.6-24.2-5.13-4.43-7.97z"/><path class="cls-26" d="M88.73 266.85c.6-.21 27-6.27 27-6.27l27.5 4.17-37.61 8.39z"/><path class="cls-27" d="M143.26 264.75l22.17-10.82 25.2-5.25-25.2 17.09-22.17-1.02z"/><path class="cls-28" d="M188.14 219.15c-.26.33-2.39 11.45-2.39 11.45l5 18.43s1.75-22.14 1.67-22.37-4.28-7.51-4.28-7.51z"/><path class="cls-29" d="M104.89 89.39l22.27 8.47 19.43 15-26.53-9.56-14.76-13.91"/><path class="cls-30" d="M146.59 112.86l-7.35 14.74-.53 24.68 8.22-22.87-.34-16.55z"/><path class="cls-31" d="M269.21 328.27a15.48 15.48 0 0 0-7.18-5 25.81 25.81 0 0 0-8.58-1.64 22.7 22.7 0 0 0-4.89.55 18.25 18.25 0 0 0-4.75 1.73 10.17 10.17 0 0 0-3.64 3.13 8 8 0 0 0-1.42 4.74 7.86 7.86 0 0 0 3.33 6.85 31.45 31.45 0 0 0 8.44 4.08q5.08 1.69 11 3.39a45.63 45.63 0 0 1 10.95 4.78 26.17 26.17 0 0 1 8.42 8.27q3.33 5.19 3.3 13.84a31.7 31.7 0 0 1-3.19 14.39 29.19 29.19 0 0 1-8.34 10.17 35.2 35.2 0 0 1-12.17 6 55.71 55.71 0 0 1-32.49-1.12 44.89 44.89 0 0 1-15.33-9.55l15.56-17a22.68 22.68 0 0 0 8.43 6.94 23.74 23.74 0 0 0 15.91 1.87 17.89 17.89 0 0 0 4.9-1.87 10.68 10.68 0 0 0 3.5-3.2 8 8 0 0 0 1.34-4.61A8.34 8.34 0 0 0 259 368a31.39 31.39 0 0 0-8.57-4.43q-5.16-1.83-11.16-3.67a50 50 0 0 1-11.21-4.9 26.9 26.9 0 0 1-8.56-8.13q-3.41-5-3.38-13.28a29.66 29.66 0 0 1 3.19-14 30.31 30.31 0 0 1 8.41-10 36.56 36.56 0 0 1 12.1-6 49.87 49.87 0 0 1 14.12-2 55.54 55.54 0 0 1 16.19 2.41 37.36 37.36 0 0 1 14.08 8zm90.45 1.84a21.48 21.48 0 0 0-7.88-6A26.45 26.45 0 0 0 341 322a27.12 27.12 0 0 0-20.49 8.94 31 31 0 0 0-6 10.11 38.48 38.48 0 0 0-.08 25.48 31.68 31.68 0 0 0 5.9 10.08 26.77 26.77 0 0 0 8.84 6.66 25.56 25.56 0 0 0 11 2.41 24.51 24.51 0 0 0 11.88-2.75 23.6 23.6 0 0 0 8.54-7.79l18.11 13.6a37.83 37.83 0 0 1-16 12.94 49.33 49.33 0 0 1-19.85 4.12 61 61 0 0 1-21.35-3.7 48.84 48.84 0 0 1-16.86-10.46 47.08 47.08 0 0 1-11.05-16.45 60.09 60.09 0 0 1 .14-43 47.1 47.1 0 0 1 11.16-16.37 48.93 48.93 0 0 1 16.93-10.35 60.81 60.81 0 0 1 21.38-3.56 52.77 52.77 0 0 1 8.73.8 46.88 46.88 0 0 1 8.93 2.47 39.88 39.88 0 0 1 8.43 4.5 34 34 0 0 1 7.24 6.86zM381 304.67h23.72L420.23 368h.28l20.88-63.33h20.23L482 369.89h.28l16.89-65.22h22.08L492 403.57h-19.49l-21.54-68.45h-.27l-22 68.42h-18.65z"/><path class="cls-32" d="M219.16 211.27l15.68-9.75 34.6-1.4-29.98 16.31-20.3-5.16z"/><path class="cls-33" d="M188.15 218.78c.14 0 12.83-7.75 12.94-7.75l18.07.24-17.43 11.62z"/><path class="cls-34" d="M110 284.32l-17 30 1.66 30.1s17.57-32.12 17.57-32.64-2.23-27.46-2.23-27.46z"/><path class="cls-35" d="M24.21 357.24c.22-.38 13.22-16.72 13.22-16.72l32.41-21.21 16.26-7.25-28.36 30.46z"/><path class="cls-36" d="M48.41 381.19l25.17-25.24 21.04-11.49-23.12 25.41-23.32 11.6"/><path class="cls-37" d="M86.08 311.74l1.43 17.21 7.11 15.51-2.32-23.01-6.22-9.71z"/><path class="cls-38" d="M168.64 281.61l-5.67 22.27.77 23.72 6.76-26.92-1.86-19.07z"/><path class="cls-39" d="M122.6 333.92l18.04-27.04 28-25.27-25.16 32.92-20.88 19.39z"/><path class="cls-40" d="M109.96 284.32l2.76 28.4 9.88 21.2-4.76-35.13-7.88-14.47z"/><path class="cls-41" d="M109.96 284.32l-19.1 15.95-4.78 11.47 14.3-9.63 9.58-17.79z"/><path class="cls-42" d="M88.73 266.85l9.35 12.91 11.88 4.56-8.55-12.27-12.68-5.2z"/><path class="cls-43" d="M88.73 266.85l-9.2 23.7s6.52 21.73 6.55 21.19 9.7-28.45 9.7-28.45z"/><path class="cls-44" d="M110 284.32c.39-.23 23.75-6.43 24-6.43s34.68 3.72 34.68 3.72l-35.07 11z"/><path class="cls-45" d="M161.31 190.46c.14 0 9.66-3.69 9.66-3.69l15.19 2.08s-12.39 5.45-12.44 5.37-12.41-3.76-12.41-3.76z"/><path class="cls-46" d="M190.63 248.68l24.55-5.6 26.07 4.81-32.31 7.2-18.31-6.41z"/><path class="cls-47" d="M88.73 266.85l40.48-58.15s14.42 55.83 14 56.05-54.48 2.1-54.48 2.1z"/><path class="cls-48" d="M190.63 248.68l-4.67-59.83-24.65 1.61 29.32 58.22z"/><path class="cls-49" d="M109.94 284.32l-23.88 27.42 2.65-44.89 21.23 17.47z"/><path class="cls-50" d="M241.25 247.89s-9.89 32.69-31.9 54.58l-18.72-53.79z"/><path class="cls-51" d="M241.25 247.89l-22.09-36.62-28.53 37.41 50.62-.79z"/><path class="cls-52" d="M241.25 247.89s8.95-26.65 10.89-28.61 11.17-8.45 17.3-19.16l-50.28 11.15z"/><path class="cls-53" d="M190.63 248.68l-2.48-29.9 31.01-7.51-28.53 37.41z"/><path class="cls-54" d="M209.35 302.47l-18.72-53.79-21.99 32.93 40.71 20.86z"/><path class="cls-55" d="M209.35 302.47s-25.91 19.71-45.61 25.13l4.9-46z"/><path class="cls-56" d="M163.74 327.6s-23 1.49-41.14 6.32l46-52.31z"/><path class="cls-57" d="M168.64 281.61l-58.68 2.71 12.64 49.6 46.04-52.31z"/><path class="cls-58" d="M190.63 248.68l-47.37 16.07 25.38 16.86 21.99-32.93z"/><path class="cls-59" d="M168.64 281.61l-25.38-16.86-33.3 19.57 58.68-2.71z"/><path class="cls-60" d="M122.6 333.92s-22.39 3.28-28 10.54l15.4-60.14z"/><path class="cls-61" d="M185.96 188.85l-39.37-75.99 14.72 77.6 24.65-1.61z"/><path class="cls-62" d="M146.59 112.86l-31.63-58.31-10.07 34.84 41.7 23.47z"/><path class="cls-63" d="M115 54.55L110.49 45a2 2 0 0 0-1.66-1.24c-1-.07-2 .3-3.4 2.34-2.4 3.63-6.46 20.78-.54 43.32z"/><path class="cls-64" d="M104.89 89.38a91.41 91.41 0 0 0 6.35 23.68l27.47 39.22 7.88-39.42z"/><path class="cls-65" d="M219.16 211.27l-25.09-37.41s-6.38 7.89-8.11 15l2.19 29.93z"/><path class="cls-66" d="M219.16 211.28l26.7-54.72s-27-13-51.79 17.3z"/><path class="cls-67" d="M245.87 156.56l28 36.6s-2.24 5.08-4.41 7l-50.28 11.15z"/><path class="cls-68" d="M245.87 156.56s19.52 6.84 31.84 25l-3.86 11.57z"/><path class="cls-69" d="M94.62 344.46l-46.21 36.73 37.67-69.45 8.54 32.72z"/><path class="cls-70" d="M94.62 344.46L39.04 431.3l9.37-50.11 46.21-36.73z"/><path class="cls-71" d="M86.08 311.74l2.65-44.89S68 276.88 57.47 299z"/><path class="cls-72" d="M86.08 311.74L7.33 369.66l50.14-70.7 28.61 12.78z"/><path class="cls-73" d="M86.08 311.74l-61.87 45.5s-23.28 83.61-23 83 47.21-59.07 47.21-59.07z"/><circle class="cls-74" cx="237.98" cy="173.21" r="7.11"/><path class="cls-75" d="M100.52 97.77S52.7 29.39 6 .59A3.91 3.91 0 0 0 .1 4.77L13.34 65z"/><path class="cls-76" d="M100.52 97.78L13.34 64.96l18 56.03 69.18-23.21z"/><path class="cls-77" d="M100.52 97.78l-69.18 23.21 20.41 54.22 48.77-77.43z"/><path class="cls-78" d="M100.52 97.78l28.11 111.76-76.88-34.33 48.77-77.43z"/><path class="cls-79" d="M88.73 266.85l-17.7-50.98 57.6-6.33-39.9 57.31z"/><path class="cls-80" d="M161.31 190.46l-22.6-38.18 7.88-39.42 14.72 77.6z"/><path class="cls-81" d="M190.63 248.68l-40.49-80.41-6.88 96.48 47.37-16.07z"/><path class="cls-82" d="M150.14 168.27l-38.81-23.99 31.93 120.47 6.88-96.48z"/><path class="cls-83" d="M150.14 168.27l-49.62-70.49 10.81 46.5 38.81 23.99z"/><path class="cls-84" d="M128.63 209.54l-76.88-34.33 19.28 40.66 57.6-6.33z"/><path class="cls-85" d="M88.73 266.85l54.53-2.1-33.3 19.57-21.23-17.47z"/><path class="cls-86" d="M86.08 311.74l23.88-27.42-15.34 60.14-8.54-32.72z"/><path class="cls-31" d="M274.55 177.4l-1.28 2.87-9.55-.36-2 10.87s82 11.72 92.22 13.29c10.83 1.67 38 8.09 38 8.09s-29.51-21.07-117.39-34.76z"/></g></g></svg>